<svg width="24" height="24" viewBox="0 0 24 24" fill="none" xmlns="http://www.w3.org/2000/svg" class="mr-1 h-full w-[24px]"><path fill-rule="evenodd" clip-rule="evenodd" d="M6.07299 0H17.927C21.281 0 24 2.71899 24 6.07302V17.927C24 21.281 21.281 24 17.927 24H6.07299C2.71896 24 0 21.281 0 17.927V6.07302C0 2.71899 2.71896 0 6.07299 0ZM11.3523 10.6893C12.5819 8.32008 14.1099 5.37586 18.2433 5.37586C18.558 5.37586 18.8597 5.50085 19.0822 5.72334C19.3047 5.94583 19.4297 6.24759 19.4297 6.56223C19.4297 6.87688 19.3047 7.17863 19.0822 7.40112C18.8597 7.62361 18.558 7.7486 18.2433 7.7486C15.7343 7.7486 14.7609 9.27567 13.4553 11.7896L12.6522 13.3045L12.6465 13.3155C11.4161 15.6839 9.88853 18.6243 5.75785 18.6243C5.60201 18.6244 5.44767 18.5938 5.30366 18.5343C5.15965 18.4747 5.0288 18.3873 4.9186 18.2771C4.8084 18.1669 4.72102 18.0361 4.66146 17.8921C4.60189 17.7481 4.57132 17.5937 4.57148 17.4379C4.57132 17.282 4.60189 17.1277 4.66146 16.9837C4.72102 16.8397 4.8084 16.7088 4.9186 16.5986C5.0288 16.4884 5.15965 16.4011 5.30366 16.3415C5.44767 16.2819 5.60201 16.2514 5.75785 16.2515C8.26687 16.2515 9.2403 14.7245 10.5447 12.2106L11.349 10.6957L11.3523 10.6893Z" fill="#EBF1F5"></path></svg>